
<svg width="26" height="26" viewBox="0 0 26 26" fill="none" xmlns="http://www.w3.org/2000/svg">
<path d="M10.2799 13.7699L12.6206 16.1105L16.5217 10.649M22.7635 12.9896C22.7635 14.2192 22.5213 15.4367 22.0508 16.5726C21.5803 17.7085 20.8906 18.7407 20.0212 19.6101C19.1518 20.4795 18.1197 21.1691 16.9837 21.6396C15.8478 22.1102 14.6303 22.3523 13.4008 22.3523C12.1713 22.3523 10.9538 22.1102 9.81783 21.6396C8.6819 21.1691 7.64976 20.4795 6.78036 19.6101C5.91095 18.7407 5.2213 17.7085 4.75078 16.5726C4.28026 15.4367 4.03809 14.2192 4.03809 12.9896C4.03809 10.5065 5.02451 8.12507 6.78036 6.36922C8.5362 4.61338 10.9176 3.62695 13.4008 3.62695C15.8839 3.62695 18.2654 4.61338 20.0212 6.36922C21.777 8.12507 22.7635 10.5065 22.7635 12.9896Z" stroke="white" stroke-width="1.11233" stroke-linecap="round" stroke-linejoin="round"/>
</svg>