<svg width="4887" height="657" viewBox="0 0 4887 657" fill="none" xmlns="http://www.w3.org/2000/svg">
<path d="M0.919922 133.486H235.982C324.494 133.486 374.187 187.352 374.187 284.209V529.893H0.919922V133.486ZM275.813 447.071V285.221C275.813 239.321 254.317 215.675 212.59 215.675H100.053V447.071H275.813Z" fill="#F8BD00"/>
<path d="M428.172 215.675H383.031V133.486H527.938V391.435H428.172V215.675Z" fill="#F8BD00"/>
<path d="M828.755 215.675H556.012V133.486H933.326V214.032L821.674 530.146H718.368L828.755 215.675ZM558.92 325.051H657.927V625.233H558.92V325.051Z" fill="#F8BD00"/>
<path d="M1005.28 215.675H960.265V133.486H1105.8V529.893H1004.65L1005.28 215.675Z" fill="#F8BD00"/>
<path d="M1184.96 215.675H1139.81V133.486H1285.48V529.893H1184.96V215.675Z" fill="#F8BD00"/>
<path d="M1325.31 310.51V133.486H1419.26V297.865C1418.87 312.246 1420.1 326.624 1422.93 340.73C1487.92 328.971 1515.99 294.957 1515.99 223.262V133.486H1607.66V228.067C1607.66 329.224 1559.61 381.066 1447.96 403.953C1460.14 421.752 1476.63 436.177 1495.89 445.884C1515.14 455.59 1536.55 460.262 1558.1 459.463C1646.61 459.463 1704.52 392.826 1704.52 290.911V133.486H1798.34V299.256C1798.34 442.645 1700.85 540.261 1555.95 540.261C1419.26 540.261 1325.31 453.773 1325.31 310.51Z" fill="#F8BD00"/>
<path d="M2033.4 533.563V450.742C2045.84 453.596 2058.59 454.828 2071.34 454.409C2139.37 454.409 2173.38 413.061 2173.38 331.756C2173.38 253.36 2141.52 208.345 2086.89 208.345C2046.18 208.345 2018.1 232.749 2000.4 282.948C1987 314.813 1978.91 359.827 1967.15 457.443L1957.54 534.322H1859.29C1864.47 468.57 1879.27 359.827 1896.21 269.672L1821.99 133.49H1934.27L1967.53 191.781C1982.31 170.832 2002.09 153.912 2025.08 142.561C2048.07 131.21 2073.54 125.788 2099.16 126.788C2207.01 126.788 2271.38 200.759 2271.38 325.56C2271.38 460.099 2200.44 539.253 2079.18 539.253C2063.73 539.481 2048.33 537.566 2033.4 533.563Z" fill="#F8BD00"/>
<path d="M2486.46 215.674H2284.15V0.716797H2381.64V133.485H2592.3V210.996L2470.4 530.397H2365.96L2486.46 215.674Z" fill="black"/>
<path d="M2662.22 215.675H2617.21V133.486H2762.74V529.893H2661.59L2662.22 215.675Z" fill="black"/>
<path d="M2931.17 215.675H2788.67V133.486H2955.7C3044.21 133.486 3093.15 186.593 3093.15 284.209V529.893H2994.39V285.221C2994.39 239.321 2972.64 215.675 2931.17 215.675Z" fill="black"/>
<path d="M3113.89 342.125V133.489H3212.89V335.802C3212.89 410.532 3246.91 455.546 3303.05 455.546C3363.62 455.546 3403.57 405.98 3403.57 330.618C3403.57 277.385 3402.81 252.348 3390.93 235.278C3379.04 218.208 3362.86 211.633 3336.18 211.633C3317.75 212.229 3299.53 215.728 3282.18 222.001V143.605C3310.66 133.677 3340.55 128.425 3370.7 128.052C3411.29 128.052 3451.24 139.179 3474.13 173.952C3497.02 208.725 3502.2 254.498 3502.2 324.043C3502.2 452.638 3420.26 539.886 3299 539.886C3184.82 540.265 3113.89 464.018 3113.89 342.125Z" fill="black"/>
<path d="M3511.42 449.6H3563.39C3596.02 449.6 3612.2 431.897 3612.2 399.022V215.675H3521.29V133.486H3710.96V403.447C3710.96 486.269 3665.94 531.284 3586.15 531.284H3511.42V449.6Z" fill="black"/>
<path d="M3787.08 215.675H3742.06V133.486H3887.6V529.893H3787.08V215.675Z" fill="black"/>
<path d="M4190.7 215.675H3917.45V133.486H4295.14V214.032L4183.49 530.146H4080.56L4190.7 215.675ZM3920.86 325.051H4019.87V625.233H3920.86V325.051Z" fill="black"/>
<path d="M4847.58 133.487H4368.61C4358.55 133.487 4348.9 137.483 4341.78 144.597C4334.67 151.711 4330.67 161.36 4330.67 171.42V491.707C4330.59 496.742 4331.51 501.742 4333.38 506.418C4335.25 511.093 4338.03 515.35 4341.56 518.94C4345.09 522.53 4349.3 525.38 4353.94 527.326C4358.59 529.272 4363.57 530.274 4368.61 530.273H4847.58C4857.8 530.24 4867.59 526.166 4874.82 518.94C4882.04 511.715 4886.11 501.925 4886.15 491.707V172.179C4886.32 167.092 4885.46 162.023 4883.63 157.274C4881.8 152.525 4879.03 148.192 4875.49 144.535C4871.96 140.877 4867.72 137.969 4863.03 135.985C4858.34 134 4853.3 132.978 4848.21 132.981H4847.33M4661.33 399.781L4596.33 465.28H4410.59C4407.08 465.386 4403.67 464.126 4401.08 461.768C4398.48 459.409 4396.9 456.135 4396.68 452.635V313.545C4396.52 311.625 4396.76 309.694 4397.39 307.872C4398.02 306.051 4399.02 304.38 4400.33 302.966C4401.63 301.551 4403.22 300.424 4404.99 299.655C4406.75 298.886 4408.66 298.492 4410.59 298.498H4649.32C4652.98 298.498 4656.5 299.946 4659.11 302.527C4661.71 305.108 4663.19 308.614 4663.22 312.281L4661.33 399.781ZM4647.54 309.246H4409.07C4408.17 309.334 4407.34 309.739 4406.71 310.388C4406.08 311.037 4405.71 311.887 4405.65 312.787V451.877C4405.65 452.325 4405.74 452.769 4405.91 453.183C4406.09 453.597 4406.34 453.974 4406.65 454.291C4406.97 454.608 4407.35 454.859 4407.76 455.031C4408.18 455.202 4408.62 455.291 4409.07 455.291H4590.77L4650.83 395.103V312.407C4650.77 311.558 4650.38 310.766 4649.74 310.2C4649.1 309.634 4648.27 309.337 4647.42 309.373M4461.16 415.587C4461.27 417.846 4460.92 420.102 4460.15 422.228C4459.38 424.353 4458.2 426.306 4456.67 427.974C4455.14 429.641 4453.3 430.992 4451.25 431.947C4449.2 432.903 4446.99 433.445 4444.73 433.542C4444.19 433.671 4443.62 433.671 4443.08 433.542C4440.75 433.559 4438.44 433.113 4436.29 432.229C4434.13 431.345 4432.17 430.042 4430.53 428.395C4428.88 426.748 4427.58 424.789 4426.69 422.634C4425.81 420.479 4425.36 418.169 4425.38 415.84C4425.48 411.175 4427.37 406.729 4430.67 403.429C4433.97 400.13 4438.42 398.234 4443.08 398.137C4447.71 398.237 4452.12 400.145 4455.36 403.455C4458.59 406.764 4460.41 411.21 4460.41 415.84L4461.16 415.587ZM4512.75 415.587C4512.86 420.16 4511.15 424.588 4507.99 427.905C4504.84 431.221 4500.51 433.157 4495.94 433.289H4495.18C4490.47 433.289 4485.96 431.428 4482.62 428.112C4479.28 424.796 4477.38 420.293 4477.35 415.587C4477.51 410.921 4479.44 406.491 4482.76 403.202C4486.07 399.912 4490.51 398.011 4495.18 397.884C4499.78 398.016 4504.16 399.939 4507.37 403.245C4510.58 406.551 4512.38 410.978 4512.37 415.587H4512.75ZM4564.34 415.587C4564.39 417.862 4564 420.125 4563.17 422.246C4562.35 424.367 4561.11 426.304 4559.54 427.948C4557.97 429.592 4556.08 430.91 4554 431.827C4551.92 432.743 4549.68 433.24 4547.4 433.289H4546.64C4541.95 433.289 4537.44 431.424 4534.12 428.104C4530.8 424.784 4528.94 420.282 4528.94 415.587C4529.07 410.932 4530.97 406.503 4534.27 403.211C4537.56 399.918 4541.99 398.012 4546.64 397.884C4551.27 397.984 4555.68 399.892 4558.91 403.202C4562.15 406.511 4563.97 410.957 4563.96 415.587H4564.34ZM4580.91 542.032V637.878C4580.91 658.615 4569.65 663.167 4556.63 647.109L4464.58 542.032H4580.91Z" fill="#F8BD00"/>
</svg>
