<svg width="32769" height="4682" viewBox="0 0 32769 4682" fill="none" xmlns="http://www.w3.org/2000/svg">
<g clip-path="url(#clip0_3647_2673)">
<path d="M13467.7 1536.82H12741.4V4704.94H13467.7V1536.82Z" fill="#F8BD00"/>
<path d="M383.816 3645.23C517.131 3646.18 648.687 3614.5 767.215 3552.89C885.743 3491.29 987.71 3401.6 1064.38 3291.51C1216.02 3088.65 1291.72 2790.83 1291.48 2398.05V769.319H1965.51C2126.28 765.833 2286.6 787.574 2440.75 833.765C2564.53 870.816 2676.91 939.125 2767.25 1032.23C2856.66 1129.28 2921.18 1246.95 2955.16 1374.97C2998.01 1537.59 3018.28 1705.44 3015.38 1873.69V3596.17H3734.4L3732.95 1840.01C3732.95 668.255 3161.46 82.6242 2018.48 83.1124H580.44V2433.2C580.44 2787.66 452.743 2964.89 197.35 2964.89C135.715 2967.77 75.1355 2947.99 26.8453 2909.23H0V3545.64C116.57 3613.49 249.28 3647.92 383.816 3645.23Z" fill="#F8BD00"/>
<path d="M4885.13 709.289C5202.92 709.289 5453 808.155 5635.35 1005.89C5817.71 1203.62 5908.88 1462.63 5908.88 1782.91V3596.92H6632.26V1793.89C6632.26 1192.64 6459.82 738.339 6114.94 430.998C5819.64 160.031 5426.39 24.3031 4935.2 23.8149C4525.98 24.5472 4215.69 93.8758 4004.31 231.801V957.554H4044.95C4236.49 792.044 4516.55 709.289 4885.13 709.289Z" fill="#F8BD00"/>
<path d="M7896.15 82.401H7172.06V3596.19H7896.15V82.401Z" fill="#F8BD00"/>
<path d="M11584.1 3142.87C11992.6 2785.48 12197 2264.54 12197.2 1580.04L12201.6 83.1333H11482.6V1611.54C11486.7 1818.75 11461.1 2025.47 11406.4 2225.24C11362.9 2380.63 11283.6 2523.42 11174.9 2641.94C11067.9 2753.58 10934.6 2835.98 10787.5 2881.42C10609.1 2934.88 10423.6 2960.56 10237.5 2957.58H9157.17V2287.49H9703.51C10012.6 2197.41 10235.8 2052.89 10373.2 1853.94C10548.8 1593.96 10636.8 1247.32 10637.3 814.013V83.1333H9918.27V907.753C9918.27 1556.61 9663.85 1942.55 9155 2065.59V82.401H8435.97V3596.92H10254.2C10789.7 3597.65 11233 3446.3 11584.1 3142.87Z" fill="#F8BD00"/>
<path d="M15197.4 1782.17C15197.4 2159.33 15105.9 2469.11 14924.6 2714.45C14817.3 2850.44 14699.1 2977.32 14571.2 3093.8C14408.6 3243.15 14237.3 3382.54 14058.3 3511.24V3595.46H14916.6C15163.3 3415.03 15382.9 3199.71 15568.8 2956.12C15804.7 2644.14 15922.4 2232.32 15922.2 1720.65V82.401H12741.4V769.34H15198.8V1782.17H15197.4Z" fill="#F8BD00"/>
<path d="M16265.4 3641.57C16398.4 3643.14 16529.8 3612.1 16648.4 3551.13C16766.9 3490.16 16869 3401.07 16945.9 3291.51C17096.8 3088.65 17173 2790.59 17172.3 2398.05V769.319H17847.1C18008.1 765.778 18168.6 787.52 18323 833.765C18446.7 870.988 18559.1 939.272 18649.5 1032.23C18739.5 1128.9 18804.1 1246.71 18837.4 1374.97C18881 1537.46 18901.3 1705.4 18897.7 1873.69V3596.17H19616.7L19615.2 1840.01C19615.2 668.255 19043.7 82.6242 17900.8 83.1124H16462.7V2428.81C16462 2783.27 16334.1 2960.49 16078.9 2960.49C16017.3 2963.38 15956.7 2943.6 15908.4 2904.83H15882.3V3541.24C15998.4 3609.73 16130.9 3644.45 16265.4 3641.57Z" fill="#F8BD00"/>
<path d="M20879.9 2182.76H20156.5V82.401H20879.9V2182.76Z" fill="black"/>
<path d="M24899.4 1880.31C24899.4 2393.68 24726.3 2819.9 24379.9 3158.98C24215.9 3322.41 24021.1 3451.06 23807 3537.34C23592.9 3623.62 23363.9 3665.79 23133.4 3661.37C22580.6 3661.37 22150.3 3468.52 21842.7 3082.81C21560.4 2730.56 21419.4 2278.46 21419.7 1726.51V82.401H23002.8C23552.3 82.401 23999.3 227.161 24343.6 516.681C24713.7 833.054 24898.9 1287.6 24899.4 1880.31ZM24180.4 1920.58C24180.4 1548.55 24064.8 1259.28 23833.6 1052.76C23615.9 863.812 23335.9 769.584 22993.4 770.072H22127.1V1790.23C22127.1 2182.76 22227.2 2486.93 22427.5 2702.73C22613.9 2900.46 22857 2999.08 23156.7 2998.59C23290.2 3000.86 23422.8 2976.47 23546.9 2926.83C23671.1 2877.19 23784.3 2803.27 23880 2709.32C24080.3 2517.44 24180.4 2254.53 24180.4 1920.58Z" fill="black"/>
<path d="M26137.2 3596.19H25413.8V82.401H26137.2V3596.19Z" fill="black"/>
<path d="M27401.1 2182.76H26677V82.401H27401.1V2182.76Z" fill="black"/>
<path d="M32446.6 82.401H28262.3C28084.6 82.401 27940.9 236.926 27940.9 428.067V3254.18C27940.9 3445.33 28084.6 3600.58 28262.3 3600.58H32446.6C32624.3 3600.58 32768 3446.06 32768 3254.18V428.8C32768 236.926 32623.6 82.401 32446.6 82.401ZM30822.8 2436.15L30241.6 3012.51H28616.4C28600.4 3012.52 28584.6 3009.34 28569.8 3003.15C28555.1 2996.96 28541.7 2987.89 28530.4 2976.45C28519.2 2965.02 28510.3 2951.44 28504.2 2936.51C28498.2 2921.59 28495.1 2905.6 28495.2 2889.48V1665.73C28495.2 1649.62 28498.3 1633.66 28504.3 1618.76C28510.4 1603.86 28519.3 1590.31 28530.6 1578.88C28541.8 1567.46 28555.2 1558.38 28569.9 1552.17C28584.6 1545.96 28600.4 1542.74 28616.4 1542.7H30701.6C30717.6 1542.69 30733.4 1545.87 30748.2 1552.05C30762.9 1558.24 30776.3 1567.32 30787.6 1578.75C30798.8 1590.19 30807.8 1603.76 30813.8 1618.69C30819.8 1633.62 30822.9 1649.6 30822.8 1665.73V2436.15ZM30700.9 1635.7L28615.7 1634.97C28607.8 1635.01 28600.3 1638.18 28594.7 1643.81C28589.1 1649.43 28586 1657.05 28585.9 1665V2888.74C28585.9 2892.7 28586.6 2896.62 28588.1 2900.28C28589.6 2903.94 28591.8 2907.27 28594.6 2910.06C28597.3 2912.86 28600.6 2915.07 28604.2 2916.56C28607.9 2918.06 28611.8 2918.81 28615.7 2918.77H30203.2L30730.6 2395.88V1665C30730.7 1661.09 30729.9 1657.22 30728.4 1653.61C30726.9 1650.01 30724.7 1646.75 30721.9 1644.02C30719.1 1641.29 30715.8 1639.15 30712.2 1637.72C30708.6 1636.29 30704.8 1635.61 30700.9 1635.7ZM29066.2 2574.57C29066.2 2605.42 29057.2 2635.58 29040.2 2661.23C29023.2 2686.88 28999.1 2706.88 28970.8 2718.68C28942.6 2730.49 28911.5 2733.58 28881.5 2727.56C28851.6 2721.54 28824 2706.68 28802.4 2684.87C28780.8 2663.05 28766.1 2635.26 28760.1 2605C28754.2 2574.74 28757.2 2543.38 28768.9 2514.87C28780.6 2486.37 28800.4 2462.01 28825.8 2444.87C28851.3 2427.73 28881.1 2418.58 28911.7 2418.58H28912.4V2417.85H28913.1C28954 2418.35 28993 2435.09 29021.6 2464.44C29050.3 2493.78 29066.3 2533.36 29066.2 2574.57ZM29516.8 2574.57C29516.8 2605.42 29507.7 2635.58 29490.8 2661.23C29473.8 2686.88 29449.6 2706.88 29421.4 2718.68C29393.2 2730.49 29362.1 2733.58 29332.1 2727.56C29302.1 2721.54 29274.6 2706.68 29253 2684.87C29231.4 2663.05 29216.7 2635.26 29210.7 2605C29204.7 2574.74 29207.8 2543.38 29219.5 2514.87C29231.2 2486.37 29251 2462.01 29276.4 2444.87C29301.8 2427.73 29331.7 2418.58 29362.3 2418.58H29363V2417.85H29363.7C29404.6 2418.23 29443.6 2434.94 29472.3 2464.31C29501 2493.68 29517 2533.32 29516.8 2574.57ZM29968.1 2574.57C29968.1 2605.42 29959 2635.58 29942.1 2661.23C29925.1 2686.88 29900.9 2706.88 29872.7 2718.68C29844.5 2730.49 29813.4 2733.58 29783.4 2727.56C29753.4 2721.54 29725.9 2706.68 29704.3 2684.87C29682.7 2663.05 29667.9 2635.26 29662 2605C29656 2574.74 29659.1 2543.38 29670.8 2514.87C29682.5 2486.37 29702.3 2462.01 29727.7 2444.87C29753.1 2427.73 29783 2418.58 29813.6 2418.58H29814.3V2417.85H29815C29855.8 2418.35 29894.8 2435.09 29923.5 2464.44C29952.1 2493.78 29968.2 2533.36 29968.1 2574.57ZM30111 3692.86V4541.64C30111 4722.53 30015.3 4757.69 29898.4 4622.93L29096.7 3693.59L30111 3692.86Z" fill="#F8BD00"/>
</g>
<defs>
<clipPath id="clip0_3647_2673">
<rect width="49587.8" height="7083.97" fill="white" transform="translate(0 0.49367) scale(0.660808)"/>
</clipPath>
</defs>
</svg>
