<svg width="990" height="142" viewBox="0 0 990 142" fill="none" xmlns="http://www.w3.org/2000/svg">
<g clip-path="url(#clip0_202_5741)">
<path d="M406.89 46.7017H384.948V142.418H406.89V46.7017Z" fill="white"/>
<path d="M11.5959 110.402C15.6237 110.431 19.5983 109.473 23.1793 107.612C26.7603 105.751 29.841 103.041 32.1574 99.7152C36.7388 93.5864 39.0259 84.5885 39.0186 72.7216V23.5137H59.3828C64.2398 23.4084 69.0836 24.0652 73.7408 25.4608C77.4806 26.5802 80.8757 28.6439 83.6051 31.4569C86.3065 34.389 88.2557 37.9442 89.2825 41.8118C90.577 46.7252 91.1893 51.7962 91.1019 56.8795V108.92H112.825L112.781 55.8617C112.781 20.4603 95.5153 2.767 60.983 2.78175H17.5364V73.7837C17.5364 84.4926 13.6784 89.8471 5.96231 89.8471C4.10018 89.9342 2.26993 89.3367 0.810971 88.1655H-9.15527e-05V107.393C3.52176 109.443 7.53125 110.483 11.5959 110.402Z" fill="white"/>
<path d="M147.591 21.7001C157.193 21.7001 164.748 24.687 170.257 30.661C175.767 36.635 178.521 44.4602 178.521 54.1366V108.942H200.376V54.4685C200.376 36.3031 195.166 22.5777 184.747 13.2922C175.825 5.10565 163.944 1.00498 149.104 0.990234C136.741 1.01236 127.366 3.10694 120.98 7.27398V29.2007H122.207C127.994 24.2003 136.456 21.7001 147.591 21.7001Z" fill="white"/>
<path d="M238.562 2.76025H216.685V108.92H238.562V2.76025Z" fill="white"/>
<path d="M349.984 95.2243C362.326 84.4269 368.5 68.688 368.507 48.0077L368.639 2.78238H346.915V48.9591C347.041 55.2194 346.266 61.4651 344.614 67.5006C343.3 72.1953 340.904 76.5094 337.621 80.0902C334.389 83.4631 330.361 85.9525 325.915 87.3254C320.525 88.9404 314.922 89.7164 309.3 89.6264H276.66V69.3813H293.166C302.504 66.6598 309.248 62.2936 313.399 56.2827C318.704 48.4281 321.363 37.9551 321.378 24.864V2.78238H299.655V27.6961C299.655 47.2996 291.968 58.96 276.594 62.6771V2.76025H254.871V108.942H309.804C325.981 108.964 339.375 104.392 349.984 95.2243Z" fill="white"/>
<path d="M459.149 54.1144C459.149 65.5092 456.387 74.8685 450.907 82.2806C447.665 86.3893 444.094 90.2226 440.231 93.7419C435.319 98.2541 430.144 102.466 424.733 106.354V108.898H450.666C458.118 103.447 464.755 96.9417 470.372 89.5822C477.496 80.1566 481.055 67.7144 481.048 52.2558V2.76025H384.948V23.5143H459.193V54.1144H459.149Z" fill="white"/>
<path d="M491.416 110.291C495.435 110.339 499.406 109.401 502.987 107.559C506.568 105.717 509.653 103.025 511.977 99.7152C516.537 93.5863 518.839 84.5811 518.817 72.7216V23.5137H539.203C544.067 23.4067 548.918 24.0636 553.583 25.4608C557.32 26.5854 560.714 28.6484 563.447 31.4569C566.164 34.3775 568.116 37.9369 569.124 41.8118C570.44 46.721 571.053 51.795 570.944 56.8795V108.92H592.667L592.623 55.8617C592.623 20.4603 575.357 2.767 540.825 2.78175H497.378V73.6509C497.356 84.3599 493.491 89.7143 485.782 89.7143C483.92 89.8014 482.09 89.204 480.631 88.0327H479.842V107.26C483.349 109.329 487.355 110.378 491.416 110.291Z" fill="white"/>
<path d="M630.831 66.2173H608.976V2.76025H630.831V66.2173Z" fill="black"/>
<path d="M752.271 57.0793C752.271 72.5895 747.04 85.4668 736.576 95.7111C731.619 100.649 725.734 104.536 719.266 107.142C712.799 109.749 705.879 111.023 698.916 110.889C682.213 110.889 669.214 105.063 659.92 93.41C651.393 82.7674 647.133 69.1084 647.14 52.4328V2.76025H694.971C711.572 2.76025 725.075 7.1338 735.48 15.8809C746.66 25.4393 752.257 39.1721 752.271 57.0793ZM730.548 58.2962C730.548 47.0563 727.055 38.3165 720.07 32.077C713.494 26.3686 705.032 23.5217 694.686 23.5364H668.513V54.3578C668.513 66.2173 671.538 75.4069 677.588 81.9266C683.221 87.9006 690.565 90.8802 699.618 90.8655C703.652 90.934 707.659 90.1972 711.41 88.6973C715.16 87.1975 718.58 84.9641 721.473 82.1258C727.523 76.3288 730.548 68.3856 730.548 58.2962Z" fill="black"/>
<path d="M789.668 108.92H767.813V2.76025H789.668V108.92Z" fill="black"/>
<path d="M827.853 66.2173H805.977V2.76025H827.853V66.2173Z" fill="black"/>
<path d="M980.289 2.76025H853.873C848.502 2.76025 844.162 7.42881 844.162 13.2037V98.5874C844.162 104.362 848.502 109.053 853.873 109.053H980.289C985.66 109.053 990 104.384 990 98.5874V13.2258C990 7.42881 985.638 2.76025 980.289 2.76025ZM931.231 73.8728L913.672 91.2859H864.57C864.088 91.2862 863.61 91.1901 863.164 91.0031C862.718 90.8161 862.314 90.542 861.973 90.1965C861.633 89.851 861.364 89.4409 861.181 88.9899C860.999 88.5389 860.906 88.0559 860.909 87.5687V50.5964C860.908 50.1097 861.002 49.6275 861.185 49.1773C861.368 48.7271 861.637 48.3177 861.977 47.9726C862.317 47.6274 862.721 47.3532 863.166 47.1656C863.611 46.978 864.088 46.8807 864.57 46.8792H927.57C928.053 46.8789 928.531 46.9751 928.976 47.162C929.422 47.349 929.827 47.6231 930.167 47.9687C930.507 48.3142 930.776 48.7242 930.959 49.1752C931.142 49.6262 931.234 50.1092 931.231 50.5964V73.8728ZM927.548 49.6892L864.548 49.6671C864.31 49.6683 864.082 49.7642 863.914 49.9341C863.746 50.104 863.651 50.334 863.65 50.5743V87.5466C863.648 87.6661 863.671 87.7846 863.716 87.8952C863.76 88.0058 863.826 88.1062 863.91 88.1907C863.994 88.2752 864.093 88.342 864.203 88.3871C864.313 88.4323 864.43 88.4549 864.548 88.4538H912.511L928.447 72.6559V50.5743C928.447 50.4562 928.423 50.3392 928.378 50.2304C928.333 50.1215 928.266 50.023 928.182 49.9405C928.099 49.858 927.999 49.7933 927.89 49.7501C927.781 49.707 927.665 49.6863 927.548 49.6892ZM878.161 78.0546C878.161 78.9867 877.887 79.8979 877.374 80.6729C876.861 81.4479 876.132 82.052 875.279 82.4087C874.425 82.7654 873.487 82.8587 872.581 82.6769C871.675 82.495 870.843 82.0462 870.19 81.3871C869.537 80.728 869.093 79.8882 868.912 78.974C868.732 78.0598 868.825 77.1122 869.178 76.2511C869.532 75.3899 870.13 74.6539 870.898 74.136C871.666 73.6182 872.568 73.3418 873.492 73.3418H873.514V73.3197H873.536C874.769 73.3348 875.947 73.8406 876.813 74.7272C877.679 75.6138 878.163 76.8095 878.161 78.0546ZM891.774 78.0546C891.774 78.9867 891.5 79.8979 890.987 80.6729C890.474 81.4479 889.745 82.052 888.891 82.4087C888.038 82.7654 887.099 82.8587 886.194 82.6769C885.288 82.495 884.456 82.0462 883.803 81.3871C883.15 80.728 882.705 79.8882 882.525 78.974C882.345 78.0598 882.438 77.1122 882.791 76.2511C883.144 75.3899 883.743 74.6539 884.511 74.136C885.278 73.6182 886.181 73.3418 887.105 73.3418H887.126V73.3197H887.148C888.383 73.3314 889.563 73.8361 890.429 74.7234C891.296 75.6108 891.779 76.8085 891.774 78.0546ZM905.408 78.0546C905.408 78.9867 905.134 79.8979 904.621 80.6729C904.108 81.4479 903.379 82.052 902.526 82.4087C901.673 82.7654 900.734 82.8587 899.828 82.6769C898.923 82.495 898.091 82.0462 897.438 81.3871C896.785 80.728 896.34 79.8882 896.16 78.974C895.98 78.0598 896.072 77.1122 896.426 76.2511C896.779 75.3899 897.377 74.6539 898.145 74.136C898.913 73.6182 899.816 73.3418 900.739 73.3418H900.761V73.3197H900.783C902.016 73.3348 903.194 73.8406 904.06 74.7272C904.926 75.6138 905.411 76.8095 905.408 78.0546ZM909.727 111.841V137.485C909.727 142.95 906.833 144.012 903.304 139.941L879.082 111.863L909.727 111.841Z" fill="white"/>
</g>
<defs>
<clipPath id="clip0_202_5741">
<rect width="990" height="141.429" fill="white" transform="translate(-0.00012207 0.285645)"/>
</clipPath>
</defs>
</svg>
